<svg xmlns="http://www.w3.org/2000/svg" width="24" height="24" viewBox="0 0 24 24" fill="none" stroke="#888B2C" stroke-width="2" stroke-linecap="round" stroke-linejoin="round">
  <path d="M7 20.7M7 17H4a1 1 0 0 1-1-1V4a1 1 0 0 1 1-1h9"/>
  <path d="M20.1 9.2A9 9 0 0 1 18.6 15c-1.4 2.2-3.5 3.8-6.4 4.5-1 .3-2.1.1-2.7-.7a2.5 2.5 0 0 1 1.7-3.8c.8-.2 1.5-.7 1.9-1.3a3.5 3.5 0 0 0 .6-2.5"/>
  <path d="M20 13v-3a2 2 0 0 0-2-2h-1.9"/>
  <path d="m12 19 5-5.5V5a1 1 0 0 0-1-1H8v10.5L13 19"/>
  <path d="M12 10v4"/>
  <path d="M12 2v2"/>
</svg>